<?xml version="1.0" encoding="UTF-8" standalone="no"?>
<!DOCTYPE svg PUBLIC "-//W3C//DTD SVG 1.1//EN"
 "http://www.w3.org/Graphics/SVG/1.1/DTD/svg11.dtd">
<!-- Generated by graphviz version 11.0.0 (0)
 -->
<!-- Title: snakemake_dag Pages: 1 -->
<svg width="191pt" height="188pt"
 viewBox="0.00 0.00 191.25 188.00" xmlns="http://www.w3.org/2000/svg" xmlns:xlink="http://www.w3.org/1999/xlink">
<g id="graph0" class="graph" transform="scale(1 1) rotate(0) translate(4 184)">
<title>snakemake_dag</title>
<polygon fill="white" stroke="none" points="-4,4 -4,-184 187.25,-184 187.25,4 -4,4"/>
<!-- 0 -->
<g id="node1" class="node">
<title>0</title>
<path fill="none" stroke="#d85656" stroke-width="2" d="M110.25,-36C110.25,-36 80.25,-36 80.25,-36 74.25,-36 68.25,-30 68.25,-24 68.25,-24 68.25,-12 68.25,-12 68.25,-6 74.25,0 80.25,0 80.25,0 110.25,0 110.25,0 116.25,0 122.25,-6 122.25,-12 122.25,-12 122.25,-24 122.25,-24 122.25,-30 116.25,-36 110.25,-36"/>
<text text-anchor="middle" x="95.25" y="-14.12" font-family="sans" font-size="10.00">all</text>
</g>
<!-- 1 -->
<g id="node2" class="node">
<title>1</title>
<path fill="none" stroke="#56a2d8" stroke-width="2" stroke-dasharray="5,2" d="M77.5,-108C77.5,-108 15,-108 15,-108 9,-108 3,-102 3,-96 3,-96 3,-84 3,-84 3,-78 9,-72 15,-72 15,-72 77.5,-72 77.5,-72 83.5,-72 89.5,-78 89.5,-84 89.5,-84 89.5,-96 89.5,-96 89.5,-102 83.5,-108 77.5,-108"/>
<text text-anchor="middle" x="46.25" y="-86.12" font-family="sans" font-size="10.00">update_final_list</text>
</g>
<!-- 1&#45;&gt;0 -->
<g id="edge1" class="edge">
<title>1&#45;&gt;0</title>
<path fill="none" stroke="grey" stroke-width="2" d="M58.61,-71.34C63.68,-64.1 69.68,-55.53 75.33,-47.45"/>
<polygon fill="grey" stroke="grey" stroke-width="2" points="78.12,-49.58 80.98,-39.38 72.38,-45.57 78.12,-49.58"/>
</g>
<!-- 2 -->
<g id="node3" class="node">
<title>2</title>
<path fill="none" stroke="#56d8c9" stroke-width="2" stroke-dasharray="5,2" d="M80.5,-180C80.5,-180 12,-180 12,-180 6,-180 0,-174 0,-168 0,-168 0,-156 0,-156 0,-150 6,-144 12,-144 12,-144 80.5,-144 80.5,-144 86.5,-144 92.5,-150 92.5,-156 92.5,-156 92.5,-168 92.5,-168 92.5,-174 86.5,-180 80.5,-180"/>
<text text-anchor="middle" x="46.25" y="-158.12" font-family="sans" font-size="10.00">update_bold_data</text>
</g>
<!-- 2&#45;&gt;1 -->
<g id="edge3" class="edge">
<title>2&#45;&gt;1</title>
<path fill="none" stroke="grey" stroke-width="2" d="M46.25,-143.34C46.25,-136.75 46.25,-129.08 46.25,-121.67"/>
<polygon fill="grey" stroke="grey" stroke-width="2" points="49.75,-121.93 46.25,-111.93 42.75,-121.93 49.75,-121.93"/>
</g>
<!-- 3 -->
<g id="node4" class="node">
<title>3</title>
<path fill="none" stroke="#d8a456" stroke-width="2" d="M171.25,-108C171.25,-108 119.25,-108 119.25,-108 113.25,-108 107.25,-102 107.25,-96 107.25,-96 107.25,-84 107.25,-84 107.25,-78 113.25,-72 119.25,-72 119.25,-72 171.25,-72 171.25,-72 177.25,-72 183.25,-78 183.25,-84 183.25,-84 183.25,-96 183.25,-96 183.25,-102 177.25,-108 171.25,-108"/>
<text text-anchor="middle" x="145.25" y="-86.12" font-family="sans" font-size="10.00">analyze_gaps</text>
</g>
<!-- 3&#45;&gt;0 -->
<g id="edge2" class="edge">
<title>3&#45;&gt;0</title>
<path fill="none" stroke="grey" stroke-width="2" d="M132.63,-71.34C127.46,-64.1 121.34,-55.53 115.57,-47.45"/>
<polygon fill="grey" stroke="grey" stroke-width="2" points="118.46,-45.47 109.8,-39.37 112.76,-49.54 118.46,-45.47"/>
</g>
</g>
</svg>
